<svg width="134" height="116" viewBox="0 0 134 116" fill="none" xmlns="http://www.w3.org/2000/svg">
<circle opacity="0.6" cx="14" cy="14" r="14" transform="matrix(-1 0 0 1 93 -12)" fill="#FCFCFC"/>
<circle opacity="0.6" cx="21" cy="21" r="21" transform="matrix(-1 0 0 1 42 59)" fill="#FCFCFC"/>
<circle opacity="0.4" cx="16" cy="16" r="16" transform="matrix(-1 0 0 1 56 9)" fill="#FCFCFC"/>
<circle opacity="0.2" cx="16" cy="16" r="16" transform="matrix(-1 0 0 1 134 12)" fill="#FCFCFC"/>
<circle opacity="0.4" cx="16" cy="16" r="16" transform="matrix(-1 0 0 1 115 73)" fill="#FCFCFC"/>
<circle opacity="0.2" cx="11.5" cy="11.5" r="11.5" transform="matrix(-1 0 0 1 83 44)" fill="#FCFCFC"/>
<circle opacity="0.2" cx="11.5" cy="11.5" r="11.5" transform="matrix(-1 0 0 1 65 105)" fill="#FCFCFC"/>
</svg>
