<svg preserveAspectRatio="none" width="100%" height="100%" overflow="visible" style="display: block;" viewBox="0 0 32 32" fill="none" xmlns="http://www.w3.org/2000/svg">
<g id="dex_hyperliquid_icon 1" clip-path="url(#clip0_8_2829)">
<path id="Vector" d="M16.0762 31.3143C24.492 31.3143 31.3143 24.492 31.3143 16.0762C31.3143 7.66042 24.492 0.838095 16.0762 0.838095C7.66042 0.838095 0.838095 7.66042 0.838095 16.0762C0.838095 24.492 7.66042 31.3143 16.0762 31.3143Z" fill="var(--fill-0, #50FFD6)"/>
<path id="Vector_2" d="M27.1238 15.9238C27.1238 17.7524 26.7683 19.5048 26.0064 21.1556C24.9397 23.5429 22.3746 25.473 20.0127 23.4159C18.1079 21.7397 17.7524 18.3111 14.8825 17.8032C11.0984 17.346 10.9968 21.7397 8.50794 22.2476C5.73968 22.8063 4.8254 18.1587 4.87619 16.0508C4.92698 13.9429 5.48571 10.9714 7.87302 10.9714C10.2603 10.9714 10.819 15.1619 14.3238 14.9333C17.8032 14.7048 17.854 10.3365 20.1397 8.48254C22.0952 6.88254 24.4064 8.05079 25.5492 9.98095C26.6159 11.7841 27.0984 13.8667 27.1238 15.9238Z" fill="var(--fill-0, #072723)"/>
</g>
<defs>
<clipPath id="clip0_8_2829">
<rect width="32" height="32" fill="white"/>
</clipPath>
</defs>
</svg>
