<svg preserveAspectRatio="none" width="100%" height="100%" overflow="visible" style="display: block;" viewBox="0 0 17 17" fill="none" xmlns="http://www.w3.org/2000/svg">
<path id="Vector" d="M8.33333 0C12.9358 0 16.6667 3.73083 16.6667 8.33333C16.6684 10.5212 15.8096 12.622 14.2757 14.1822C12.7419 15.7424 10.656 16.6367 8.46835 16.6722C6.28075 16.7076 4.16695 15.8813 2.58333 14.3717C0.999715 12.862 0.0733238 10.7901 0.00416676 8.60333L0 8.33333L0.00333329 8.1C0.126667 3.60583 3.80833 0 8.33333 0ZM8.33333 7.5H7.5L7.4025 7.50583C7.19996 7.52992 7.01329 7.62746 6.87784 7.77997C6.7424 7.93248 6.66759 8.12936 6.66759 8.33333C6.66759 8.5373 6.7424 8.73419 6.87784 8.8867C7.01329 9.0392 7.19996 9.13674 7.4025 9.16083L7.5 9.16667V11.6667L7.50583 11.7642C7.52777 11.9502 7.61173 12.1234 7.74418 12.2558C7.87662 12.3883 8.04982 12.4722 8.23583 12.4942L8.33333 12.5H9.16667L9.26417 12.4942C9.45018 12.4722 9.62338 12.3883 9.75582 12.2558C9.88827 12.1234 9.97223 11.9502 9.99417 11.7642L10 11.6667L9.99417 11.5692C9.97424 11.3991 9.90245 11.2394 9.78854 11.1116C9.67462 10.9838 9.52412 10.8942 9.3575 10.855L9.26417 10.8383L9.16667 10.8333V8.33333L9.16083 8.23583C9.1389 8.04982 9.05493 7.87662 8.92249 7.74418C8.79005 7.61173 8.61685 7.52777 8.43083 7.50583L8.33333 7.5ZM8.34167 5L8.23583 5.00583C8.03329 5.02992 7.84662 5.12746 7.71118 5.27997C7.57573 5.43248 7.50093 5.62936 7.50093 5.83333C7.50093 6.0373 7.57573 6.23419 7.71118 6.3867C7.84662 6.5392 8.03329 6.63674 8.23583 6.66083L8.33333 6.66667L8.43917 6.66083C8.64171 6.63674 8.82838 6.5392 8.96382 6.3867C9.09926 6.23419 9.17407 6.0373 9.17407 5.83333C9.17407 5.62936 9.09926 5.43248 8.96382 5.27997C8.82838 5.12746 8.64171 5.02992 8.43917 5.00583L8.34167 5Z" fill="var(--fill-0, #DEDEDE)"/>
</svg>
