<svg preserveAspectRatio="none" width="100%" height="100%" overflow="visible" style="display: block;" viewBox="0 0 32 32" fill="none" xmlns="http://www.w3.org/2000/svg">
<g id="tabler-icon-poker-chip">
<path id="Vector" d="M4 16C4 17.5759 4.31039 19.1363 4.91345 20.5922C5.5165 22.0481 6.40042 23.371 7.51472 24.4853M4 16C4 14.4241 4.31039 12.8637 4.91345 11.4078C5.5165 9.95189 6.40042 8.62902 7.51472 7.51472M4 16H9.33333M7.51472 24.4853C8.62902 25.5996 9.95189 26.4835 11.4078 27.0866C12.8637 27.6896 14.4241 28 16 28M7.51472 24.4853L11.286 20.714M16 28C17.5759 28 19.1363 27.6896 20.5922 27.0866C22.0481 26.4835 23.371 25.5996 24.4853 24.4853M16 28V22.6667M24.4853 24.4853C25.5996 23.371 26.4835 22.0481 27.0866 20.5922C27.6896 19.1363 28 17.5759 28 16M24.4853 24.4853L20.714 20.714M28 16C28 14.4241 27.6896 12.8637 27.0866 11.4078C26.4835 9.95189 25.5996 8.62902 24.4853 7.51472M28 16H22.6667M24.4853 7.51472C23.371 6.40042 22.0481 5.5165 20.5922 4.91345C19.1363 4.31039 17.5759 4 16 4M24.4853 7.51472L20.714 11.286M16 4C14.4241 4 12.8637 4.31039 11.4078 4.91345C9.95189 5.5165 8.62902 6.40042 7.51472 7.51472M16 4V9.33333M7.51472 7.51472L11.286 11.286M9.33333 16C9.33333 17.7681 10.0357 19.4638 11.286 20.714M9.33333 16C9.33333 14.2319 10.0357 12.5362 11.286 11.286M11.286 20.714C12.5362 21.9643 14.2319 22.6667 16 22.6667M16 22.6667C17.7681 22.6667 19.4638 21.9643 20.714 20.714M20.714 20.714C21.9643 19.4638 22.6667 17.7681 22.6667 16M22.6667 16C22.6667 14.2319 21.9643 12.5362 20.714 11.286M20.714 11.286C19.4638 10.0357 17.7681 9.33333 16 9.33333M16 9.33333C14.2319 9.33333 12.5362 10.0357 11.286 11.286" stroke="var(--stroke-0, #9D3FEF)" stroke-width="2" stroke-linecap="round" stroke-linejoin="round"/>
</g>
</svg>
