<svg width="24" height="24" viewBox="0 0 24 24" fill="none" xmlns="http://www.w3.org/2000/svg">
<path d="M12 2C13.3132 2 14.6139 2.2582 15.8271 2.76074C17.0404 3.26329 18.1427 4.00015 19.0713 4.92871C19.9998 5.85727 20.7367 6.95964 21.2393 8.17285C21.7418 9.38611 22 10.6868 22 12C22 13.3132 21.7418 14.6139 21.2393 15.8271C20.7367 17.0404 19.9998 18.1427 19.0713 19.0713C18.1427 19.9998 17.0404 20.7367 15.8271 21.2393C14.6139 21.7418 13.3132 22 12 22C10.6868 22 9.38611 21.7418 8.17285 21.2393C6.95964 20.7367 5.85727 19.9998 4.92871 19.0713C4.00015 18.1427 3.26329 17.0404 2.76074 15.8271C2.2582 14.6139 2 13.3132 2 12C2 10.6868 2.2582 9.38611 2.76074 8.17285C3.26329 6.95964 4.00015 5.85727 4.92871 4.92871C5.85727 4.00015 6.95964 3.26329 8.17285 2.76074C9.38611 2.2582 10.6868 2 12 2ZM7.0957 18.3174C7.65864 18.7544 8.27731 19.1167 8.93848 19.3906C9.59942 19.6644 10.2932 19.8445 11 19.9336V17.9141C10.1079 17.7632 9.2618 17.4129 8.52441 16.8887L7.0957 18.3174ZM15.4746 16.8887C14.7374 17.4127 13.8918 17.7633 13 17.9141V19.9336C13.7068 19.8445 14.4006 19.6644 15.0615 19.3906C15.7225 19.1168 16.3405 18.7542 16.9033 18.3174L15.4746 16.8887ZM12 8C10.9391 8 9.92202 8.42173 9.17188 9.17188C8.42173 9.92202 8 10.9391 8 12C8 13.0609 8.42173 14.078 9.17188 14.8281C9.92202 15.5783 10.9391 16 12 16C13.0609 16 14.078 15.5783 14.8281 14.8281C15.5783 14.078 16 13.0609 16 12C16 10.9391 15.5783 9.92202 14.8281 9.17188C14.078 8.42173 13.0609 8 12 8ZM4.06543 13C4.15452 13.7069 4.33559 14.4005 4.60938 15.0615C4.88308 15.7223 5.245 16.3407 5.68164 16.9033L7.11035 15.4746C6.58651 14.7374 6.23571 13.8917 6.08496 13H4.06543ZM17.915 13C17.7643 13.8919 17.4127 14.7373 16.8887 15.4746L18.3174 16.9033C18.7542 16.3405 19.1168 15.7225 19.3906 15.0615C19.6644 14.4005 19.8455 13.7069 19.9346 13H17.915ZM16.8887 8.52441C17.4129 9.26184 17.7642 10.1079 17.915 11H19.9346C19.8455 10.2931 19.6644 9.59946 19.3906 8.93848C19.1167 8.27731 18.7544 7.65864 18.3174 7.0957L16.8887 8.52441ZM5.68164 7.0957C5.24479 7.65851 4.88318 8.27749 4.60938 8.93848C4.33559 9.59946 4.15452 10.2931 4.06543 11H6.08496C6.23575 10.108 6.58626 9.26174 7.11035 8.52441L5.68164 7.0957ZM11 4.06543C10.2931 4.15452 9.59946 4.33559 8.93848 4.60938C8.27749 4.88318 7.65851 5.24479 7.0957 5.68164L8.52441 7.11035C9.26174 6.58626 10.108 6.23575 11 6.08496V4.06543ZM13 6.08496C13.8917 6.23571 14.7374 6.58651 15.4746 7.11035L16.9033 5.68164C16.3407 5.245 15.7223 4.88308 15.0615 4.60938C14.4005 4.33559 13.7069 4.15452 13 4.06543V6.08496Z" fill="#3FCFEF"/>
</svg>
