<svg width="17" height="16" viewBox="0 0 17 16" fill="none" xmlns="http://www.w3.org/2000/svg">
<path d="M7.1665 11.3334V13.3334M9.83317 11.3334V13.3334M8.49984 2.66675C11.4452 2.66675 13.8332 4.90541 13.8332 7.66675C13.8332 8.93408 13.3298 10.0914 12.4998 10.9734V12.6667C12.4998 12.8436 12.4296 13.0131 12.3046 13.1382C12.1796 13.2632 12.01 13.3334 11.8332 13.3334H5.1665C4.98969 13.3334 4.82012 13.2632 4.6951 13.1382C4.57008 13.0131 4.49984 12.8436 4.49984 12.6667V10.9734C3.66984 10.0921 3.1665 8.93475 3.1665 7.66675C3.1665 4.90541 5.5545 2.66675 8.49984 2.66675ZM5.83317 7.33341C5.83317 7.51023 5.90341 7.6798 6.02843 7.80482C6.15346 7.92984 6.32303 8.00008 6.49984 8.00008C6.67665 8.00008 6.84622 7.92984 6.97124 7.80482C7.09627 7.6798 7.1665 7.51023 7.1665 7.33341C7.1665 7.1566 7.09627 6.98703 6.97124 6.86201C6.84622 6.73699 6.67665 6.66675 6.49984 6.66675C6.32303 6.66675 6.15346 6.73699 6.02843 6.86201C5.90341 6.98703 5.83317 7.1566 5.83317 7.33341ZM9.83317 7.33341C9.83317 7.51023 9.90341 7.6798 10.0284 7.80482C10.1535 7.92984 10.323 8.00008 10.4998 8.00008C10.6766 8.00008 10.8462 7.92984 10.9712 7.80482C11.0963 7.6798 11.1665 7.51023 11.1665 7.33341C11.1665 7.1566 11.0963 6.98703 10.9712 6.86201C10.8462 6.73699 10.6766 6.66675 10.4998 6.66675C10.323 6.66675 10.1535 6.73699 10.0284 6.86201C9.90341 6.98703 9.83317 7.1566 9.83317 7.33341Z" stroke="#F62323" stroke-linecap="round" stroke-linejoin="round"/>
</svg>
