<svg preserveAspectRatio="none" width="100%" height="100%" overflow="visible" style="display: block;" viewBox="0 0 48 48" fill="none" xmlns="http://www.w3.org/2000/svg">
<g id="hypachinko_logo_v2 1">
<path id="Vector" d="M24 45.9375C18.1406 45.9375 12.6281 43.6594 8.48438 39.5156C4.34062 35.3719 2.0625 29.8594 2.0625 24C2.0625 18.1406 4.34062 12.6281 8.48438 8.48438C12.6281 4.34062 18.1406 2.0625 24 2.0625C29.8594 2.0625 35.3719 4.34062 39.5156 8.48438C43.6594 12.6281 45.9375 18.1406 45.9375 24C45.9375 29.8594 43.6594 35.3719 39.5156 39.5156C35.3719 43.6594 29.8594 45.9375 24 45.9375ZM24 2.8125C12.3188 2.8125 2.8125 12.3188 2.8125 24C2.8125 35.6812 12.3188 45.1875 24 45.1875C35.6812 45.1875 45.1875 35.6812 45.1875 24C45.1875 12.3188 35.6812 2.8125 24 2.8125Z" fill="var(--fill-0, #3FEFC0)"/>
<path id="Vector_2" d="M18.6 7.8375C18.3281 6.375 19.0781 4.60312 20.5688 4.10625C21.75 3.73125 23.0813 4.29375 23.7 5.33437C23.8313 5.55937 23.9438 5.80312 23.9906 6.06562C23.6719 5.925 23.3813 5.80312 23.0906 5.7C22.425 5.45625 21.7594 5.33437 21.0938 5.5125C20.5781 5.67187 20.2125 6.0375 19.8281 6.43125C19.4063 6.88125 19.0313 7.35937 18.5906 7.84687H18.6V7.8375Z" fill="var(--fill-0, #3FEFC0)"/>
<path id="Vector_3" d="M29.8594 7.49063C29.6719 6.29063 30.1031 4.80937 31.2562 4.22812C32.175 3.77812 33.3187 4.15312 33.9656 4.90312C34.425 5.4375 34.7156 6.075 34.7531 6.76875C34.3125 6.32812 33.8813 5.8875 33.375 5.55937C32.7844 5.175 32.0437 4.95937 31.4344 5.4C30.7312 5.93437 30.3375 6.75 29.8594 7.5V7.49063Z" fill="var(--fill-0, #3FEFC0)"/>
<path id="Vector_4" d="M23.9344 26.6719C21.75 26.6719 19.6781 22.725 19.1625 17.5125C18.6281 12.1594 19.9687 7.78125 22.2094 7.55625C24.45 7.33125 26.6344 11.3531 27.1687 16.7062C27.7031 22.0594 26.3625 26.4375 24.1219 26.6625H23.9344V26.6719ZM22.2375 7.93125C21.3094 8.025 20.4844 9.075 19.9781 10.8094C19.4438 12.6281 19.2844 14.9906 19.5281 17.475C19.7719 19.95 20.4 22.2375 21.2813 23.9156C22.125 25.5188 23.1469 26.3813 24.0656 26.2875C24.9938 26.1938 25.8187 25.1438 26.325 23.4094C26.8594 21.5906 27.0188 19.2281 26.775 16.7438C26.5313 14.2688 25.9031 11.9813 25.0219 10.3031C24.1781 8.7 23.1563 7.8375 22.2375 7.93125Z" fill="var(--fill-0, #3FEFC0)"/>
<path id="Vector_5" d="M34.5188 26.1375C33.5063 26.1375 32.475 25.2562 31.6125 23.625C30.7313 21.9562 30.1031 19.6875 29.8594 17.2313C29.6156 14.775 29.775 12.4313 30.3094 10.6219C30.8625 8.75625 31.7531 7.66875 32.8313 7.56562C33.9 7.4625 34.9969 8.34375 35.9063 10.0688C36.7875 11.7375 37.4156 14.0063 37.6594 16.4625C37.9031 18.9188 37.7438 21.2625 37.2094 23.0719C36.6562 24.9375 35.7656 26.025 34.6875 26.1281H34.5094H34.5188V26.1375ZM32.8781 7.94062C31.9781 8.03437 31.1812 9.04688 30.6844 10.7344C30.1594 12.4969 30.0094 14.7938 30.2438 17.2031C30.4781 19.6125 31.0875 21.8344 31.95 23.4562C32.775 25.0125 33.7594 25.8469 34.6594 25.7625C35.5594 25.6687 36.3563 24.6562 36.8531 22.9687C37.3781 21.2062 37.5281 18.9094 37.2937 16.5C37.0594 14.0906 36.45 11.8688 35.5875 10.2469C34.7625 8.69063 33.7781 7.85625 32.8781 7.94062Z" fill="var(--fill-0, #3FEFC0)"/>
<path id="Vector_6" d="M22.1822 25.4099C23.0015 25.2874 23.255 22.44 22.7484 19.0501C22.2418 15.6601 21.1669 13.0113 20.3475 13.1337C19.5282 13.2562 19.2747 16.1035 19.7813 19.4935C20.288 22.8835 21.3629 25.5323 22.1822 25.4099Z" fill="var(--fill-0, #3FEFC0)"/>
<path id="Vector_7" d="M33.0858 25.0355C33.9051 24.913 34.1586 22.0656 33.6519 18.6757C33.1453 15.2857 32.0704 12.6369 31.2511 12.7593C30.4317 12.8818 30.1783 15.7291 30.6849 19.1191C31.1915 22.5091 32.2664 25.1579 33.0858 25.0355Z" fill="var(--fill-0, #3FEFC0)"/>
<path id="Vector_8" d="M18.6188 24.7594C18.6938 25.2656 18.5344 25.7812 18.1781 26.1656C17.8031 26.5219 17.2219 26.6156 16.7344 26.4844C17.1562 26.325 17.5875 26.2125 17.9156 25.9031C18.225 25.575 18.4031 25.1719 18.6188 24.7594Z" fill="var(--fill-0, #3FEFC0)"/>
<path id="Vector_9" d="M40.5281 27.1125C40.0594 27.3281 39.525 27.3281 39.0563 27.0938C38.6063 26.8406 38.3531 26.3063 38.3438 25.8C38.6156 26.1656 38.85 26.5406 39.2344 26.7656C39.6469 26.9719 40.0687 27.0281 40.5281 27.1125Z" fill="var(--fill-0, #3FEFC0)"/>
<path id="Vector_10" d="M26.4656 40.6875C24.0094 40.6875 22.0406 39.8531 20.6062 38.2219C18.7031 36.0469 18.0937 32.8125 17.925 30.4875C17.7562 28.2188 17.9625 26.3438 18 25.9875V25.8938C18.0281 25.8188 18.0937 25.7719 18.1781 25.7719H18.1875C18.2437 25.7719 18.2906 25.7906 18.3281 25.8375C18.7969 26.1938 23.2875 29.4469 28.3875 29.4469C33.4875 29.4469 38.8125 26.7844 38.8688 26.7563C38.9344 26.7188 39.0094 26.7281 39.075 26.775C39.1312 26.8219 39.1594 26.8969 39.1406 26.9625C39.1406 27 38.2969 30.4313 36.3375 33.8063C35.1844 35.8031 33.8625 37.3875 32.4281 38.5313C30.6187 39.9656 28.6031 40.6969 26.4563 40.6969H26.4656V40.6875ZM18.3469 26.2875C18.1969 27.825 17.775 34.4156 20.8875 37.9688C22.2469 39.525 24.1219 40.3125 26.4656 40.3125C31.1531 40.3125 34.2469 36.675 36.0188 33.6188C37.5656 30.9469 38.4 28.2562 38.6813 27.2625C37.3969 27.8812 33.0375 29.8031 28.4062 29.8031C23.775 29.8031 19.4437 27.0656 18.3469 26.2875Z" fill="var(--fill-0, #3FEFC0)"/>
<path id="Vector_11" d="M8.56464 13.0453C9.23692 12.2441 9.51826 11.3734 9.19302 11.1004C8.86778 10.8275 8.05913 11.2558 7.38685 12.057C6.71456 12.8582 6.43322 13.7289 6.75846 14.0018C7.0837 14.2747 7.89235 13.8465 8.56464 13.0453Z" fill="var(--fill-0, #3FEFC0)"/>
<path id="Vector_12" d="M6.85312 15.3C5.44687 17.0625 4.59375 20.0063 4.29375 22.2281C4.18125 23.0625 4.13437 23.9062 4.18125 24.7312C4.18125 24.9469 4.03125 25.1344 3.81563 25.1438C3.60938 25.1531 3.43125 25.0031 3.4125 24.7969C3.25313 23.025 3.46875 21.2437 3.87187 19.5187C4.18125 18.225 4.6125 16.9406 5.23125 15.75C5.325 15.5719 5.46562 15.3188 5.57812 15.15C5.69063 14.9531 5.84062 14.7562 5.98125 14.5687C6.16875 14.3156 6.51563 14.2594 6.77813 14.4469C7.05938 14.6437 7.0875 15.0469 6.8625 15.3H6.85312Z" fill="url(#paint0_linear_7_2793)"/>
<path id="Vector_13" d="M30.9281 34.2563C29.4656 33.0938 26.4094 31.2469 24 31.1531C23.4375 31.1344 23.0437 31.3969 22.8187 31.6219C23.625 32.2687 24.2906 33.0656 24.825 33.9469C24.5062 33.5344 24.1594 33.1594 23.775 32.8125C23.4 32.475 22.6125 31.8281 22.6125 31.8281C22.4344 31.6969 21.4969 31.1156 20.4562 31.1156C19.4156 31.1156 18.2344 31.6969 18.2344 31.6969C18.7594 35.7656 20.6344 40.5 26.4563 40.5C29.064 40.5 31.2 39.4219 32.9156 37.8656C32.9156 37.8656 33.0844 35.9813 30.9281 34.2563Z" fill="var(--fill-0, #3FEFC0)"/>
</g>
<defs>
<linearGradient id="paint0_linear_7_2793" x1="2.98125" y1="24.7781" x2="6.375" y2="15.6469" gradientUnits="userSpaceOnUse">
<stop stop-color="#3FEFC0" stop-opacity="0"/>
<stop offset="1" stop-color="#3FEFC0"/>
</linearGradient>
</defs>
</svg>
