<svg preserveAspectRatio="none" width="100%" height="100%" overflow="visible" style="display: block;" viewBox="0 0 107 21" fill="none" xmlns="http://www.w3.org/2000/svg">
<g id="Group" opacity="0.8">
<path id="Vector" d="M27.483 10.134C27.508 12.3903 27.0358 14.5464 26.1083 16.6063C24.7837 19.5395 21.6081 21.938 18.7083 19.3849C16.3433 17.3041 15.9046 13.0797 12.3613 12.4614C7.67313 11.8931 7.56031 17.3292 4.49754 17.9434C1.08379 18.637 -0.0485566 12.8959 0.00158427 10.2886C0.0517251 7.68125 0.74534 4.01679 3.71201 4.01679C7.12576 4.01679 7.35557 9.18546 11.6886 8.90551C15.9798 8.61303 16.055 3.23542 18.8587 0.933128C21.278 -1.05579 24.1235 0.40247 25.5483 2.79669C26.8687 5.01125 27.4495 7.61021 27.4787 10.134H27.483Z" fill="var(--fill-0, #85FFDE)"/>
<g id="Group 3">
<path id="Vector_2" d="M34.7801 14.0573V3.06878H35.8221V7.82099H42.2478V3.06878H43.2741V14.0573H42.2478V8.70514H35.8221V14.0573H34.7801Z" fill="var(--fill-0, #85FFDE)"/>
<path id="Vector_3" d="M45.9951 17.3888L47.4161 13.8523L44.3374 6.46344H45.411L47.4319 11.4683C47.5476 11.7735 47.7108 12.1788 47.9213 12.684C47.9529 12.6103 47.9845 12.5287 48.016 12.4392C48.0476 12.3498 48.0792 12.2682 48.1108 12.1945C48.1739 12.0577 48.2292 11.9288 48.2766 11.8077C48.3239 11.6867 48.3687 11.5683 48.4107 11.4525L50.3053 6.46344H51.3316L47.0214 17.3888H45.9951Z" fill="var(--fill-0, #85FFDE)"/>
<path id="Vector_4" d="M52.3726 17.3896V6.46426H53.3514V7.8536C53.604 7.37997 53.9698 6.99317 54.4487 6.69319C54.9276 6.39321 55.4617 6.24323 56.0512 6.24323C56.7564 6.24323 57.3695 6.41426 57.8905 6.75634C58.4115 7.09842 58.8115 7.57206 59.0904 8.17725C59.3693 8.78248 59.5088 9.46928 59.5088 10.2376C59.5088 11.006 59.364 11.7112 59.0746 12.3216C58.7851 12.9322 58.3773 13.411 57.851 13.7584C57.3248 14.1057 56.7248 14.2794 56.0512 14.2794C55.4828 14.2794 54.9592 14.1426 54.4802 13.8689C54.0013 13.5952 53.6251 13.1952 53.3514 12.669V17.3896H52.3726ZM55.9091 13.49C56.4248 13.49 56.8801 13.3531 57.2748 13.0795C57.6695 12.8058 57.9721 12.4243 58.1826 11.9348C58.3931 11.4454 58.4983 10.8797 58.4983 10.2376C58.4983 9.59557 58.3904 9.06401 58.1747 8.57985C57.9589 8.09569 57.6563 7.71942 57.2669 7.45102C56.8774 7.18262 56.4248 7.04842 55.9091 7.04842C55.3933 7.04842 54.9539 7.17999 54.5592 7.44313C54.1645 7.70625 53.8566 8.07991 53.6356 8.56407C53.4146 9.04823 53.304 9.60607 53.304 10.2376C53.304 10.8692 53.4146 11.4454 53.6356 11.9348C53.8566 12.4243 54.1619 12.8058 54.5513 13.0795C54.9407 13.3531 55.3933 13.49 55.9091 13.49Z" fill="var(--fill-0, #85FFDE)"/>
<path id="Vector_5" d="M64.1825 14.2794C63.4668 14.2794 62.8379 14.1215 62.2958 13.8058C61.7538 13.49 61.3328 13.0268 61.0328 12.4164C60.7328 11.8059 60.5828 11.0744 60.5828 10.2219C60.5828 9.464 60.738 8.78248 61.0486 8.17725C61.3591 7.57206 61.7827 7.09842 62.3195 6.75634C62.8563 6.41426 63.4563 6.24323 64.1194 6.24323C64.8349 6.24323 65.4454 6.40637 65.9509 6.73266C66.4558 7.05894 66.84 7.51943 67.1034 8.11413C67.3667 8.70881 67.4978 9.40083 67.4978 10.1902V10.3955H61.5617C61.5617 11.0481 61.6722 11.606 61.8932 12.0691C62.1143 12.5322 62.4248 12.8848 62.8247 13.1268C63.2247 13.3689 63.6825 13.49 64.1983 13.49C64.8088 13.49 65.3164 13.3453 65.7218 13.0558C66.1272 12.7664 66.3769 12.3322 66.4716 11.7533H67.4505C67.377 12.2375 67.2062 12.669 66.9374 13.0479C66.6691 13.4268 66.3008 13.7268 65.8323 13.9478C65.3638 14.1688 64.8142 14.2794 64.1825 14.2794ZM66.4558 9.65347C66.4455 8.86405 66.2349 8.23253 65.8247 7.75887C65.4138 7.28524 64.8458 7.04842 64.1194 7.04842C63.3931 7.04842 62.8326 7.29314 62.3748 7.7826C61.9169 8.27198 61.6564 8.89561 61.5933 9.65347H66.4558Z" fill="var(--fill-0, #85FFDE)"/>
<path id="Vector_6" d="M69.0122 14.0583V6.46426H69.9911V7.9799C70.2017 7.4747 70.5303 7.05895 70.9776 6.73266C71.4249 6.40637 71.9489 6.24323 72.5485 6.24323C72.6959 6.24323 72.838 6.25375 72.9751 6.2748V7.22209C72.7961 7.20104 72.6383 7.19051 72.5011 7.19051C71.9962 7.19051 71.5538 7.30366 71.1751 7.52996C70.7964 7.75626 70.5042 8.07991 70.2991 8.50095C70.0934 8.92194 69.9911 9.41138 69.9911 9.96922V14.0583H69.0122Z" fill="var(--fill-0, #85FFDE)"/>
<path id="Vector_7" d="M75.4046 13.8475L75.36 14.0606H72.2628L72.3074 13.8475C73.1628 13.7554 73.5126 13.5107 73.6498 12.8713L75.3888 4.67459C75.5733 3.83519 75.3126 3.69836 74.4284 3.87993L74.473 3.66679L76.365 3.02473H76.5783L74.4861 12.8686C74.3495 13.5107 74.5786 13.7528 75.4019 13.8448L75.4046 13.8475Z" fill="var(--fill-0, #85FFDE)"/>
<path id="Vector_8" d="M78.8936 13.8476L78.8485 14.0607H75.7519L75.7965 13.8476C76.6513 13.7554 77.0017 13.5107 77.1383 12.8713L78.1906 7.87963C78.3751 7.02442 78.1302 6.90338 77.2302 7.08494L77.2754 6.8718L79.1673 6.22975H79.3801L77.9752 12.8687C77.838 13.5107 78.0671 13.7528 78.8909 13.8449L78.8936 13.8476ZM79.4117 3.46946C79.8252 3.46946 80.0989 3.79048 80.0537 4.20098C79.9933 4.6141 79.6277 4.91934 79.2305 4.91934C78.8039 4.91934 78.5117 4.6141 78.5748 4.20098C78.6199 3.78786 78.9883 3.46946 79.4144 3.46946H79.4117Z" fill="var(--fill-0, #85FFDE)"/>
<path id="Vector_9" d="M84.2279 16.2608L85.0778 12.3348C84.5434 13.4952 83.4307 14.2872 82.2543 14.2872C80.3624 14.2872 79.4755 12.5005 80.0413 9.82973C80.4386 7.89041 82.1781 6.22738 84.2382 6.22738C85.1855 6.22738 85.962 6.65366 86.283 7.27993L87.0013 6.22738H87.2146L85.0674 16.2555C84.9145 16.9423 85.4647 17.0791 86.0148 17.1712L85.9696 17.3843H82.4148L82.4594 17.1712C83.4829 17.0791 84.0777 16.9423 84.2306 16.2555L84.2279 16.2608ZM82.7598 13.7241C83.736 13.7241 84.7121 12.8847 85.1697 11.8769L85.8118 8.86929C85.9805 7.78517 85.4619 6.6563 83.9803 6.6563C82.4992 6.6563 81.3413 7.93775 80.9598 9.8139C80.4701 12.119 81.1568 13.7215 82.7598 13.7215V13.7241Z" fill="var(--fill-0, #85FFDE)"/>
<path id="Vector_10" d="M97.8037 13.8476L97.7585 14.0607H94.6613L94.7065 13.8476C95.5613 13.7554 95.9117 13.5107 96.0483 12.8713L97.1007 7.87963C97.2851 7.02442 97.0403 6.90338 96.1403 7.08494L96.1849 6.8718L98.0774 6.22975H98.2901L96.8852 12.8687C96.7481 13.5107 96.9771 13.7528 97.8009 13.8449L97.8037 13.8476ZM98.3217 3.46946C98.7347 3.46946 99.0084 3.79048 98.9637 4.20098C98.9033 4.6141 98.5377 4.91934 98.1405 4.91934C97.7139 4.91934 97.4217 4.6141 97.4848 4.20098C97.53 3.78786 97.8983 3.46946 98.3244 3.46946H98.3217Z" fill="var(--fill-0, #85FFDE)"/>
<path id="Vector_11" d="M93.4062 12.8528L94.1087 9.50048L94.8008 6.23235H94.5875L92.6956 6.8744L92.651 7.08754C93.5352 6.90335 93.7953 7.02702 93.6114 7.88219L92.7114 12.1398C91.7195 13.0713 91.017 13.6212 90.1616 13.6212C89.1093 13.6212 88.5592 12.9029 88.8198 11.6687L89.9799 6.23498H89.7671L87.8589 6.87703L87.8143 7.09017C88.7142 6.90598 88.9591 7.02965 88.7904 7.88486L87.9671 11.7924C87.6461 13.2423 88.3801 14.2948 89.7377 14.2948C90.6377 14.2948 91.43 13.7922 92.6483 12.4845L92.5901 12.7607V12.7739H92.5879L92.3142 14.0685H94.2796L94.3242 13.837C93.5009 13.7449 93.2718 13.5001 93.4084 12.8607L93.4062 12.8528Z" fill="var(--fill-0, #85FFDE)"/>
<path id="Vector_12" d="M106.056 5.94554L106.672 3.02473H106.459L104.567 3.66679L104.522 3.87993C105.407 3.69573 105.667 3.83519 105.483 4.67459L104.948 7.16122C104.612 6.59548 103.88 6.22973 103.025 6.22973C100.948 6.22973 99.2252 7.87697 98.7834 9.96886C98.2491 12.5029 99.1202 14.2869 101.028 14.2869C102.217 14.2869 103.349 13.4791 103.867 12.3187L103.73 12.9844L103.501 14.058L105.467 14.0422L105.512 13.8291C104.688 13.737 104.459 13.4922 104.596 12.8528L106.053 5.94554H106.056ZM103.956 11.8608C103.499 12.8844 102.522 13.7238 101.53 13.7238C99.9277 13.7238 99.241 12.1213 99.6986 9.95308C100.125 7.93748 101.346 6.65601 102.767 6.65601C104.283 6.65601 104.788 7.85852 104.588 8.9532L104.517 9.28473L103.959 11.8608H103.956Z" fill="var(--fill-0, #85FFDE)"/>
</g>
</g>
</svg>
