<svg width="1080" height="1080" viewBox="0 0 1080 1080" fill="none" xmlns="http://www.w3.org/2000/svg">
<g clip-path="url(#clip0_246_3182)">
<path d="M1080 540C1080 241.766 838.234 0 540 0C241.766 0 0 241.766 0 540C0 838.234 241.766 1080 540 1080C838.234 1080 1080 838.234 1080 540Z" fill="#1B0E18"/>
<path d="M540 997.031C417.93 997.031 303.086 949.57 216.758 863.242C130.43 776.914 82.9688 662.07 82.9688 540C82.9688 417.93 130.43 303.086 216.758 216.758C303.086 130.43 417.93 82.9688 540 82.9688C662.07 82.9688 776.914 130.43 863.242 216.758C949.57 303.086 997.031 417.93 997.031 540C997.031 662.07 949.57 776.914 863.242 863.242C776.914 949.57 662.07 997.031 540 997.031ZM540 98.5938C296.641 98.5938 98.5938 296.641 98.5938 540C98.5938 783.359 296.641 981.406 540 981.406C783.359 981.406 981.406 783.359 981.406 540C981.406 296.641 783.359 98.5938 540 98.5938Z" fill="#3FEFC0"/>
<path d="M427.5 203.281C421.836 172.813 437.461 135.898 468.516 125.547C493.125 117.734 520.859 129.453 533.75 151.133C536.484 155.82 538.828 160.898 539.805 166.367C533.164 163.438 527.109 160.898 521.055 158.75C507.188 153.672 493.32 151.133 479.453 154.844C468.711 158.164 461.094 165.781 453.086 173.984C444.297 183.359 436.484 193.32 427.305 203.477H427.5V203.281Z" fill="#3FEFC0"/>
<path d="M662.07 196.055C658.164 171.055 667.148 140.195 691.172 128.086C710.313 118.711 734.141 126.523 747.617 142.148C757.187 153.281 763.242 166.563 764.023 181.016C754.844 171.836 745.859 162.656 735.313 155.82C723.008 147.813 707.578 143.32 694.883 152.5C680.234 163.633 672.031 180.625 662.07 196.25V196.055Z" fill="#3FEFC0"/>
<path d="M538.633 595.664C493.125 595.664 449.961 513.438 439.219 404.844C428.086 293.32 456.016 202.109 502.695 197.422C549.375 192.734 594.883 276.523 606.016 388.047C617.148 499.57 589.219 590.781 542.539 595.469H538.633V595.664ZM503.281 205.234C483.945 207.188 466.758 229.063 456.211 265.195C445.078 303.086 441.758 352.305 446.836 404.063C451.914 455.625 465 503.281 483.359 538.242C500.938 571.641 522.227 589.609 541.367 587.656C560.703 585.703 577.891 563.828 588.437 527.695C599.57 489.805 602.891 440.586 597.813 388.828C592.734 337.266 579.648 289.609 561.289 254.648C543.711 221.25 522.422 203.281 503.281 205.234Z" fill="#3FEFC0"/>
<path d="M759.141 584.531C738.047 584.531 716.563 566.172 698.594 532.188C680.234 497.422 667.148 450.156 662.07 398.984C656.992 347.813 660.312 298.984 671.445 261.289C682.969 222.422 701.523 199.766 723.984 197.617C746.25 195.469 769.102 213.828 788.047 249.766C806.406 284.531 819.492 331.797 824.57 382.969C829.648 434.141 826.328 482.969 815.195 520.664C803.672 559.531 785.117 582.188 762.656 584.336H758.945H759.141V584.531ZM724.961 205.43C706.211 207.383 689.609 228.477 679.258 263.633C668.32 300.352 665.195 348.203 670.078 398.398C674.961 448.594 687.656 494.883 705.625 528.672C722.812 561.094 743.32 578.477 762.07 576.719C780.82 574.766 797.422 553.672 807.773 518.516C818.711 481.797 821.836 433.945 816.953 383.75C812.07 333.555 799.375 287.266 781.406 253.477C764.219 221.055 743.711 203.672 724.961 205.43Z" fill="#3FEFC0"/>
<path d="M502.129 569.372C519.199 566.821 524.48 507.501 513.925 436.877C503.37 366.252 480.976 311.068 463.907 313.619C446.837 316.17 441.556 375.49 452.111 446.115C462.666 516.739 485.06 571.923 502.129 569.372Z" fill="#3FEFC0"/>
<path d="M729.287 561.572C746.356 559.021 751.637 499.701 741.082 429.077C730.527 358.452 708.133 303.268 691.064 305.819C673.995 308.37 668.714 367.69 679.268 438.315C689.823 508.939 712.217 564.123 729.287 561.572Z" fill="#3FEFC0"/>
<path d="M427.891 555.82C429.453 566.367 426.133 577.109 418.711 585.117C410.898 592.539 398.789 594.492 388.633 591.758C397.422 588.437 406.406 586.094 413.242 579.648C419.688 572.812 423.398 564.414 427.891 555.82Z" fill="#3FEFC0"/>
<path d="M884.336 604.844C874.57 609.336 863.438 609.336 853.672 604.453C844.297 599.18 839.023 588.047 838.828 577.5C844.492 585.117 849.375 592.93 857.383 597.617C865.977 601.914 874.766 603.086 884.336 604.844Z" fill="#3FEFC0"/>
<path d="M591.367 887.656C540.195 887.656 499.18 870.273 469.297 836.289C429.648 790.977 416.953 723.594 413.437 675.156C409.922 627.891 414.219 588.828 415 581.406V579.453C415.586 577.891 416.953 576.914 418.711 576.914H418.906C420.078 576.914 421.055 577.305 421.836 578.281C431.602 585.703 525.156 653.477 631.406 653.477C737.656 653.477 848.594 598.008 849.766 597.422C851.133 596.641 852.695 596.836 854.062 597.813C855.234 598.789 855.82 600.352 855.43 601.719C855.43 602.5 837.852 673.984 797.031 744.297C773.008 785.898 745.469 818.906 715.586 842.734C677.891 872.617 635.898 887.852 591.172 887.852H591.367V887.656ZM422.227 587.656C419.102 619.687 410.313 756.992 475.156 831.016C503.477 863.438 542.539 879.844 591.367 879.844C689.023 879.844 753.477 804.063 790.391 740.391C822.617 684.727 840 628.672 845.859 607.969C819.102 620.859 728.281 660.898 631.797 660.898C535.313 660.898 445.078 603.867 422.227 587.656Z" fill="#3FEFC0"/>
<path d="M218.43 311.777C232.436 295.085 238.297 276.945 231.521 271.259C224.745 265.574 207.899 274.496 193.893 291.188C179.887 307.879 174.025 326.019 180.801 331.705C187.577 337.391 204.424 328.468 218.43 311.777Z" fill="#3FEFC0"/>
<path d="M182.773 358.75C153.477 395.469 135.703 456.797 129.453 503.086C127.109 520.469 126.133 538.047 127.109 555.234C127.109 559.727 123.984 563.633 119.492 563.828C115.195 564.023 111.484 560.898 111.094 556.602C107.773 519.688 112.266 482.578 120.664 446.641C127.109 419.687 136.094 392.93 148.984 368.125C150.938 364.414 153.867 359.141 156.211 355.625C158.555 351.523 161.68 347.422 164.609 343.516C168.516 338.242 175.742 337.07 181.211 340.977C187.07 345.078 187.656 353.477 182.969 358.75H182.773Z" fill="url(#paint0_linear_246_3182)"/>
<path d="M684.336 753.672C653.867 729.453 590.195 690.977 540 689.023C528.281 688.633 520.078 694.102 515.391 698.789C532.187 712.266 546.055 728.867 557.187 747.227C550.547 738.633 543.32 730.82 535.313 723.594C527.5 716.563 511.094 703.086 511.094 703.086C507.383 700.352 487.852 688.242 466.172 688.242C444.492 688.242 419.883 700.352 419.883 700.352C430.82 785.117 469.883 883.75 591.172 883.75C645.5 883.75 690 861.289 725.742 828.867C725.742 828.867 729.258 789.609 684.336 753.672Z" fill="#3FEFC0"/>
</g>
<defs>
<linearGradient id="paint0_linear_246_3182" x1="102.109" y1="556.211" x2="172.813" y2="365.977" gradientUnits="userSpaceOnUse">
<stop stop-color="#3FEFC0" stop-opacity="0"/>
<stop offset="1" stop-color="#3FEFC0"/>
</linearGradient>
<clipPath id="clip0_246_3182">
<rect width="1080" height="1080" fill="white"/>
</clipPath>
</defs>
</svg>
